<svg xmlns="http://www.w3.org/2000/svg" enable-background="new 0 0 50 50" viewBox="0 0 50 50" id="electrical-toolkit"><path fill="#F7CFB4" d="M16.5,19.8c0,0-1.1-2.1-2-0.5c-0.9,1.6-0.7,4.4-0.6,4.9c0.1,0.6-0.4,4.5-0.3,4.7c0.1,0.3,0.5,1,0.6,1.3
		c0.2,0.3,0.5,0.1,0.5,0.1c0.1,0.1,0.9,0.3,1,0.1c0.1-0.2-0.2-0.2-0.3-0.3c-0.1-0.1,0-0.1,0-0.1c0.5,0.1,0.3-0.2,0.2-1.7
		c-0.1-0.8-0.6-1.3-0.7-1.9c-0.1-0.6,0.8-3.2,1-3.8C16,21.9,16.4,19.8,16.5,19.8z M15,28.9c0.2,0.9-0.1,0.5-0.3,0.7
		c-0.2-0.3,0.1-0.5-0.1-0.6C14.8,29,14.9,28.5,15,28.9z"></path><path fill="#E8BC95" d="M15.1 29.4c.1.2.2.4.3.5C15.2 29.9 15.1 29.7 15.1 29.4zM13.7 29.1c.5 0 .5 1.1.8 1.1.1 0 .1 0 .2 0-.3-.1-.3.3-.6-.5 0-.1-.1-.3-.1-.4C14 29.3 13.9 29.2 13.7 29.1z"></path><path fill="#1A99CE" d="M30.3,48.7c-0.2,0.6-2.8,0.2-2.9-0.3c0,0,0-0.4,0-0.5c0-0.1-0.3-0.4-0.3-0.4c0,0-0.1,0.2-0.1,0.2
		s-0.9-0.2-0.9-0.6c0-0.3,0-0.5,0.1-0.6c0,0,0.1-0.7,0.1-1s2.4,0,2.4,0s0.4,1.2,0.7,1.4c0.3,0.2,0.8,0.6,0.8,1
		C30.2,48,30.5,48.2,30.3,48.7z"></path><path fill="#E5E5E5" d="M30.3,48.7c-0.2,0.6-2.8,0.2-2.9-0.3c0,0,0-0.4,0-0.5c0-0.1-0.3-0.4-0.3-0.4c0,0-0.1,0.2-0.1,0.2
		s-0.9-0.2-0.9-0.6c0-0.2,0-0.4,0-0.5c0,0.3,0.9,0.6,0.9,0.6s0.1-0.2,0.1-0.2c0,0,0.3,0.3,0.3,0.4c0,0.1,0,0.5,0,0.5
		c0.1,0.5,2.8,0.8,2.9,0.3c0,0,0,0,0-0.1C30.4,48.3,30.4,48.5,30.3,48.7z"></path><path fill="#1A99CE" d="M20.8,45.5c0,0-0.1,1.1,0,1.5c0.1,0.4,0.3,0.7,0.2,1c0,0,0.1,0.5-0.1,0.7c-0.2,0.2-2.1,0.2-2.3,0
		c-0.1-0.1-0.6-0.3-0.4-1c0.2-0.7,0.3-0.9,0.3-1.1c0-0.2,0.3-1,0.4-1.3S20.8,45.5,20.8,45.5z"></path><path fill="#E5E5E5" d="M20.9,48.6c-0.2,0.2-2.1,0.2-2.3,0c-0.1-0.1-0.5-0.3-0.4-0.9c0.1,0.2,0.3,0.3,0.4,0.4
		c0.1,0.2,2.2,0.2,2.4,0c0,0,0-0.1,0.1-0.1C21.1,48.2,21.1,48.5,20.9,48.6z"></path><path fill="#F7CFB4" d="M31.1,28c-0.2,0.1-0.2,0-0.2,0s-0.1,0.2-0.4,0c-0.3-0.2-0.7-0.1-0.8-0.2c-0.1-0.1-0.5-0.6,0-0.5
		c0,0-0.1-0.5,0.2-0.4c-1-1.5-0.5-1.8-0.8-2.3c-0.1-0.3-1-2.4-1.4-2.9c-0.4-0.5-1.2-2.7-1.2-3.1c0-0.3,2.3-0.5,2.3-0.5
		c0.3,1.3,1.4,6.4,1.9,7.1c0.2,0.3,0.7,1.1,0.8,1.3C31.5,26.8,31.3,27.9,31.1,28z"></path><polygon fill="#B9BFC1" points="36 30.4 36.2 33.8 32.5 34.9 32.2 31.4"></polygon><polygon fill="#E5E5E5" points="32.2 31.4 28.2 30.8 28.4 34.4 32.5 34.9"></polygon><path fill="#EB6024" d="M36.2,30.3c0,0.1-0.2,0.1-0.2,0.1l-3.8,1l-4.1-0.6c0,0-0.6-0.3-0.7-0.3c0,0,0.4-1,0.4-1c0-0.1,0-1.8,0-1.7
		l8.2,0.8C36.3,28.8,36.3,30.2,36.2,30.3z"></path><path fill="#F36F40" d="M36,28.5l-4,1l-4.2-0.4c0-0.5,0-1.4,0-1.4L36,28.5z"></path><path fill="#DB5326" d="M32,30.6C32,30.6,32,30.6,32,30.6c-3.5-0.4-3.7-0.2-3.7-0.5c0-0.1,0.1-0.1,0.1-0.1l3.5,0.3l4.4-1.1
			c0.1,0,0.1,0,0.1,0.1s0,0.1-0.1,0.1L32,30.6C32,30.6,32,30.6,32,30.6z"></path><path fill="#E5E5E5" d="M31.3,28.9c-0.1,0-0.1-0.1-0.1-0.1l-0.1-1.4l-2.3-0.1c0.1,0.2,0.2,0.2,0.2,0.3c0,0.9,0.2,1.2-0.1,1.3
			c-0.2,0-0.1-0.3-0.2-1.2c-0.2-0.4-0.4-0.5-0.3-0.6c0,0,0.1-0.1,0.1-0.1c2.6,0.2,2.8,0,2.9,0.3C31.4,28.6,31.5,28.9,31.3,28.9
			C31.3,28.9,31.3,28.9,31.3,28.9z"></path><path fill="#3F535A" d="M28.9,43c-0.1,1.5-0.1,2.9-0.1,2.9s-2.3,0.6-2.5,0.1c-0.2-0.4-0.4-3.1-0.5-4.5c-0.2-1.7,0.3-4.4,0.2-5.1
		c-0.1-0.7-1-4-1.4-4.5c-0.4-0.5-1.9-3.7-1.9-3.7s-1,4.7-1.1,5.2c-1.3,4.5-0.7,0.9-0.5,10.5c0,1,0,1.7,0,1.7c-0.2,0.2-2.1,0.2-2.2,0
		c-0.1-0.1-0.2-1.1-0.4-2.3v0c-0.3-1.9-0.7-4.4-0.7-5.1c-0.1-1,0.6-4.1,0.5-5.2c-0.1-1.2-1.2-5.7-0.3-8.2c0.9-2.5,9.4-0.3,9.4-0.3
		s0.1,0.2,0.2,0.6c0.4,1.3,1.4,4.5,1.5,6.4C29.2,38.5,29.1,38.8,28.9,43z"></path><path fill="#2CB29B" d="M28.9,18.2c-0.2,0.7-2.5,0.7-2.5,0.8c0.2,0.5,1.1,4.9,0.9,5.7c-0.4,1.3-6.1,4.2-9.7,0.5
		c-0.1-1.1,0.6-6.7-0.1-8.2c0-0.1-0.1-0.1-0.1-0.1c-0.1,0.2-0.8,3.1-0.9,3.2c-0.1,0.1-2.4-0.3-2.4-0.3c-0.1-0.1,0-0.3,0.1-0.8
		c0.1-0.5,1.1-6.4,1.5-7.1c0.4-0.7,3.3-2.3,3.5-2.4c0.2-0.1,0.2-0.5,0.3-0.7c0.1-0.3,0.3-0.3,0.3-0.3s3-0.6,3.1-0.5
		c0.2,0.1,0.4,0.9,0.6,1c0.1,0.1,1.8,0.7,2.6,1.1c0.9,0.4,1.6,1.8,1.6,3.7C27.7,15.5,29.1,17.5,28.9,18.2z"></path><path fill="#010101" d="M20.3 9.2c-.1-.1-.3-.7-.5-.6C19.6 8.6 19.7 9.2 20.3 9.2zM23.1 8.6C23 8.7 23 9.2 22.9 9.3c0-.1-.3-1.2 0-1.3C23 8 23.2 8.3 23.1 8.6z" opacity=".2"></path><path fill="#E8BC95" d="M19.8,7.7c0,0,0,1,0.1,1.2c0.1,0.1,1.2,0.8,1.5,0.9s0.5,0.3,0.5,0.5c0,0.2,0.3,0.5,0.3,0.5s0.3-0.3,0.3-0.5
		c0.1-0.7,0.6-1.1,0.4-2.5c0-0.3,0-1,0-1C22.8,6.8,19.6,7.8,19.8,7.7z"></path><path fill="#36484D" d="M23.6,3.9c-0.1-0.6-0.5-1.5-1.1-2.1c-0.6-0.5-2.2-0.6-3,0.1c-1,0.9-0.7,2.4-0.6,3.7c0,0,0.2,0.8,0.3,0.8
			c0.1,0,1-0.4,1.1-0.4c0.1,0,2.1,0.4,2.2,0.4c0.1,0,0.7-0.2,0.7-0.3c0,0,0.3-0.4,0.3-0.4C23.5,5.6,23.7,5.1,23.6,3.9z"></path><path fill="#F7CFB4" d="M23.5,6.5c-0.3,0.1-0.4,0.1-0.4,0c0-0.1-0.3,0.9-0.4,1C22,9,20.6,9,19.7,7.7c-0.1-0.1-0.4-1.1-0.5-1
			c0,0.1-0.1,0.1-0.4,0c-0.3-0.1-0.4-0.9-0.3-1.3c0.1-0.4,0.3-0.2,0.3-0.2L19.1,6c0,0,0-0.2,0-0.5c0-0.3-0.1-0.7,0-1.8
			c0.1-1.1,3.6-1.3,3.8-0.1c0.2,1.1,0.2,1.4,0.2,1.8c0,0.3,0.1,0.5,0.1,0.5L23.4,5c0,0,0.2-0.3,0.4,0.2C23.9,5.6,23.8,6.4,23.5,6.5z
			"></path><path fill="#EB8123" d="M23.7,4.3c-0.3-4.1-5.2-3.9-5.1,0.2L23.7,4.3z"></path><path fill="#EB6024" d="M23.6 4.8l-5 .2c-.4 0-.4-.6 0-.7l5-.2C24 4.1 24 4.8 23.6 4.8zM20.3 1.3L21 3.2l.6-2C21.7.9 20.2.9 20.3 1.3z"></path><path fill="#010101" d="M26.7 13c-.3 1.9-.5 3.4-.3 6C26 17 26.2 14.7 26.7 13zM17.4 16.9c-.1-.5.3-1 .2-1.5-.1-.2-.2-.4-.3-.7-.1-.3-.1-.5 0-.8 0 .3 0 .5.1.7.1.2.3.4.4.7 0 .1 0 .3 0 .4 0 .1-.1.3-.1.4C17.6 16.4 17.4 16.6 17.4 16.9z" opacity=".05"></path><path fill="#F7CFB4" d="M31.1,27.9C31.1,27.9,31.1,28,31.1,27.9C30.8,28,30.8,28,30.8,28s-0.1,0.2-0.4,0c-0.3-0.2-0.7-0.1-0.8-0.2
		c-0.1-0.1-0.5-0.6,0-0.5c0,0-0.1-0.5,0.2-0.4c0,0,0,0,0,0c0,0,0,0,0.1,0c0-0.1,0.1-0.1,0.2-0.1c0.2,0,0.1,0.3,0.1,0.4
		c0,0.1,0,0.1,0.1,0.1c0,0,0-0.1,0-0.1c0,0,0.1-0.1,0.1-0.1c0.1,0,0.3,0.3,0.3,0.4C30.8,27.7,31,27.7,31.1,27.9
		C31.1,27.9,31.1,27.9,31.1,27.9z"></path><path fill="none" d="M20.1,9.9C20.1,9.9,20.1,10,20.1,9.9"></path><path fill="#F7CFB4" d="M30.2,26.2c0.4,0,0.2,1,0.2,1.2c0,0.2,0.1,0.3,0.2,0.3c0.2,0,0.4-0.5,0.4-0.8c0-0.1,0-0.3,0-0.4
		s0-0.3,0.1-0.4"></path><path fill="#E8BC95" d="M30.2,26.2c0.2,0,0.2,0.2,0.3,0.3c0.1,0.3,0,0.6,0,0.9c0,0.1,0,0.3,0.2,0.3c0.1,0,0.2-0.2,0.3-0.3
		c0.2-0.4,0.1-0.6,0.1-0.8c0-0.1,0-0.3,0.2-0.4C30.8,26.4,31,26.7,31,27c0,0.2-0.1,0.5-0.2,0.6c-0.1,0.2-0.3,0.1-0.4,0
		c-0.1-0.2,0-0.5,0-0.7c0-0.2,0.1-0.5,0-0.6C30.3,26.2,30.2,26.2,30.2,26.2z"></path><path fill="#010101" d="M26 44.2c-.5-5.5.1-6.8 0-7.8-.1-.7-1-4-1.4-4.5-.4-.5-1.9-3.7-1.9-3.7s-1 4.7-1.1 5.2c-1.3 4.5-.7.9-.5 10.5-.7-.8-.8-1.8-.9-2.9-.5-4.6-.3-4.4 2.4-13.5.9.8 3.4 4.7 3.9 7.2C26.8 36.9 26.1 43.8 26 44.2zM18.3 43.4c-.3-1.9-.7-4.4-.7-5.1-.1-1 .6-4.1.5-5.2-.1-1.1-1-4.9-.5-7.5.5.5-.3.8.4 3.9 1.2 4.9.2 4.4 0 8.3C17.9 39.6 18.3 41.5 18.3 43.4zM28.9 43c-.8-.6 1-6.4-1.4-16.8-.1-.2-.2-.8-.1-1.1C29.5 31.7 29.2 35.4 28.9 43zM17.6 25.2c.1-.6.5-7-.1-8.2.1-.1.2-.1.3.1.1.1.1.2.1.3C18.1 18.7 18.8 24.5 17.6 25.2zM27.3 23.8c-.3-.4-1.9-6.1-1-4.8C26.7 19.4 27.3 23.1 27.3 23.8z" opacity=".05"></path></svg>