<svg xmlns="http://www.w3.org/2000/svg" data-name="Layer 1" viewBox="0 0 512 512" id="electrician"><path fill="#57aafe" d="M447.56 501.999V376.302a60 60 0 0 0-33.656-53.907l-96.44-47.13a20 20 0 0 1-11.22-17.969v-35.158H205.203v35.429a20 20 0 0 1-11.219 17.969l-95.887 46.86a60 60 0 0 0-33.656 53.906V502a10 10 0 0 0 10 10h363.12a10 10 0 0 0 10-10Z"></path><path fill="#d34342" d="M172.929 420.812h-31.26V298.46a5 5 0 0 1 2.486-4.321l21.26-12.37a5 5 0 0 1 7.514 4.322zm166.142 0h31.26V298.46a5 5 0 0 0-2.486-4.321l-21.26-12.37a5 5 0 0 0-7.514 4.322z"></path><path fill="#f9beac" d="M256 304.499a98.147 98.147 0 0 0 67.156-26.452l-5.693-2.782a20 20 0 0 1-11.218-17.97v-35.157H205.202v35.428a20 20 0 0 1-11.219 17.97l-5.14 2.511A98.146 98.146 0 0 0 256 304.5Z"></path><path fill="#f96263" d="M128.12 511.999V401.812a30 30 0 0 1 30-30h195.76a30 30 0 0 1 30 30V512Z"></path><path fill="#f9beac" d="M128.12 463.902H64.44V502a10 10 0 0 0 10 10h53.68zm255.76 0h63.68V502a10 10 0 0 1-10 10h-53.68z"></path><path fill="#e58a7b" d="M264.247 275.158a39.662 39.662 0 0 0 24.42-8.41l17.578-13.734v-30.876H205.202v18.763a51.931 51.931 0 0 0 5.656 5.16l26.475 20.688a39.662 39.662 0 0 0 24.42 8.41Z"></path><path fill="#f9beac" d="M203.858 229.553a52.012 52.012 0 0 1-19.987-40.984v-72.396A31.873 31.873 0 0 1 215.744 84.3h80.513a31.873 31.873 0 0 1 31.873 31.873v72.396a52.012 52.012 0 0 1-19.988 40.984l-26.475 20.687a39.662 39.662 0 0 1-24.42 8.41h-2.494a39.662 39.662 0 0 1-24.42-8.41Z"></path><path fill="#343c4a" d="M291.142 218.002a27.031 27.031 0 0 0-27.032-27.03h-16.22a27.031 27.031 0 0 0-27.032 27.03v24.835l9.475 7.403a39.662 39.662 0 0 0 24.42 8.41h2.494a39.662 39.662 0 0 0 24.42-8.41l9.475-7.403Z"></path><path fill="#e58a7b" d="M328.13 168.606v-44.872a19.63 19.63 0 0 1 19.299 23.219l-1.234 6.638a18.375 18.375 0 0 1-18.066 15.015zm-144.26 0v-44.872a19.63 19.63 0 0 0-19.299 23.219l1.234 6.638a18.375 18.375 0 0 0 18.066 15.015zm84.032 12.547v4.758A11.902 11.902 0 0 1 256 197.813a11.902 11.902 0 0 1-11.902-11.902v-4.758a3 3 0 0 1 3-3h17.804a3 3 0 0 1 3 3z"></path><path fill="#f96263" d="M238.068 3.499h35.87a55.782 55.782 0 0 1 55.781 55.782v49.897H182.286V59.281a55.782 55.782 0 0 1 55.782-55.782Z"></path><path fill="#57aafe" d="m305.654 131.809-29.35-6.318a96.474 96.474 0 0 0-40.603 0l-29.35 6.318a18.335 18.335 0 0 1-20.6-10.45l-3.861-8.65a8.744 8.744 0 0 1 5.3-11.896 225.216 225.216 0 0 1 70.438-10.782c23.447.169 51.938 7.08 66.608 11.112a8.753 8.753 0 0 1 5.683 12.008l-3.664 8.207a18.335 18.335 0 0 1-20.601 10.45Z"></path><path fill="#ffbc5b" d="M263.162 18.462a3.312 3.312 0 0 1 3.32 4.423c-2.22 5.729-4.675 11.386-7.07 17.044-.145.343-.042.486.242.65 4.485 2.589 8.96 5.195 13.449 7.776a3.376 3.376 0 0 1 .718 5.61q-12.196 11.57-24.415 23.115c-1.365 1.292-2.71 1.585-4.11.908a3.223 3.223 0 0 1-1.65-4.082c.85-2.195 1.78-4.358 2.684-6.532q2.187-5.26 4.394-10.51c.15-.358.024-.485-.25-.643-4.541-2.611-9.127-5.17-13.61-7.876a3.362 3.362 0 0 1-.555-5.516q12.203-11.562 24.415-23.118a3.886 3.886 0 0 1 2.438-1.249Z"></path><circle cx="348" cy="409.499" r="17.5" fill="#ffbc5b"></circle><circle cx="166" cy="409.499" r="17.5" fill="#ffbc5b"></circle><path fill="#ffbc5b" d="M266.069 406.769a4.118 4.118 0 0 1 4.128 5.5c-2.76 7.124-5.814 14.159-8.792 21.195-.18.426-.051.603.302.807 5.576 3.22 11.14 6.46 16.723 9.67a4.198 4.198 0 0 1 .893 6.977q-15.166 14.386-30.36 28.743c-1.698 1.607-3.37 1.971-5.11 1.129a4.008 4.008 0 0 1-2.053-5.076c1.056-2.73 2.214-5.42 3.337-8.123q2.72-6.54 5.465-13.07c.187-.444.03-.602-.312-.798-5.646-3.247-11.348-6.429-16.924-9.795a4.181 4.181 0 0 1-.69-6.858q15.176-14.379 30.36-28.747a4.832 4.832 0 0 1 3.033-1.554Z"></path><path fill="#ededed" d="m477.982 230.702-25.321 31.981a5 5 0 0 0-.677 5.07l3.346 7.82a5 5 0 0 1-.267 4.466l-65.898 114.139 21.816 12.596 65.898-114.139a5 5 0 0 1 3.735-2.464l8.444-1.013a5 5 0 0 0 4.053-3.121l15.036-37.92a5 5 0 0 0-2.148-6.173l-21.597-12.469a5 5 0 0 0-6.42 1.227Z"></path><path fill="#343c4a" d="M400.948 398.96a25.167 25.167 0 0 1 9.212 34.378l-36.126 62.573a25.167 25.167 0 0 1-34.38 9.212 25.167 25.167 0 0 1-9.211-34.38l36.126-62.572a25.167 25.167 0 0 1 34.38-9.212Z"></path><path d="m507.75 238.914-21.598-12.469a8.55 8.55 0 0 0-10.914 2.085l-25.32 31.982a8.49 8.49 0 0 0-1.151 8.62l3.345 7.818a1.507 1.507 0 0 1-.08 1.34l-27 46.765a63.912 63.912 0 0 0-9.595-5.8l-41.607-20.33v-.465a8.559 8.559 0 0 0-4.22-7.346l-21.262-12.37a8.42 8.42 0 0 0-8.518-.017 8.529 8.529 0 0 0-2.6 2.312l-12.588-6.154c-.029-.014-.057-.03-.087-.043L319 272.126a16.618 16.618 0 0 1-9.26-14.826v-24.558l.553-.433a55.134 55.134 0 0 0 21.337-43.74v-16.756a21.875 21.875 0 0 0 18.006-17.582l1.234-6.637a23.122 23.122 0 0 0-19.24-27.088v-2.602l1.485-3.326a12.218 12.218 0 0 0 .105-9.696V59.28A59.347 59.347 0 0 0 273.94 0h-35.87a59.347 59.347 0 0 0-59.28 59.28v44.67c-.03.064-.068.123-.097.188a12.276 12.276 0 0 0 0 10l1.677 3.755v2.613a23.122 23.122 0 0 0-19.24 27.088l1.234 6.638a21.875 21.875 0 0 0 18.006 17.581v16.757a55.133 55.133 0 0 0 21.33 43.734v25.266a16.397 16.397 0 0 1-9.257 14.826l-5.027 2.456-.007.003-12.643 6.178a8.533 8.533 0 0 0-2.596-2.306 8.423 8.423 0 0 0-8.52.017l-21.276 12.38a8.552 8.552 0 0 0-4.204 7.336v.465l-41.606 20.33A63.876 63.876 0 0 0 60.94 376.3v132.2a3.5 3.5 0 1 0 7 0v-41.097h56.68V508.5a3.5 3.5 0 0 0 7 0V401.81a26.493 26.493 0 0 1 11.99-22.158l.026-.017a26.34 26.34 0 0 1 14.484-4.325h195.76a26.495 26.495 0 0 1 25.19 18.335 28.399 28.399 0 0 0-11.747 7.64A20.999 20.999 0 1 0 348 430.5c.563 0 1.122-.029 1.68-.073l-22.268 38.568a28.667 28.667 0 0 0 49.653 28.667l3.315-5.742v16.58a3.5 3.5 0 0 0 7 0v-28.704l7.157-12.396h49.523v41.1a3.5 3.5 0 0 0 7 0V376.3a63.073 63.073 0 0 0-4.67-23.853l33.52-58.061a1.505 1.505 0 0 1 1.121-.738l8.443-1.013a8.493 8.493 0 0 0 6.89-5.307l15.037-37.92a8.55 8.55 0 0 0-3.651-10.494ZM331.63 127.618a16.133 16.133 0 0 1 12.358 18.696l-1.234 6.638a14.875 14.875 0 0 1-11.124 11.727Zm-151.26 37.06a14.875 14.875 0 0 1-11.124-11.726l-1.234-6.638a16.133 16.133 0 0 1 12.358-18.696Zm-42.2 210.238a33.471 33.471 0 0 0-13.55 26.894v58.593H67.94V376.3a56.832 56.832 0 0 1 31.697-50.755l38.533-18.83Zm31.26-6.606h-11.31a33.313 33.313 0 0 0-12.95 2.606V298.46a1.517 1.517 0 0 1 .74-1.295l21.258-12.37a1.468 1.468 0 0 1 1.51-.002 1.45 1.45 0 0 1 .752 1.297Zm16.36-309.03A52.339 52.339 0 0 1 238.07 7h35.87a52.34 52.34 0 0 1 52.28 52.28v38.842c-.346-.13-.696-.254-1.057-.353-15.003-4.123-43.724-11.065-67.51-11.237a228.287 228.287 0 0 0-71.533 10.95c-.113.036-.219.086-.33.125Zm-.706 47.713a5.165 5.165 0 0 1 3.176-2.847 221.192 221.192 0 0 1 67.737-10.62c.534 0 1.07.002 1.606.006 22.986.166 51.033 6.955 65.705 10.987a5.262 5.262 0 0 1 3.369 2.828 5.171 5.171 0 0 1 .046 4.378l-1.792 4.015c-.012.027-.025.053-.036.081l-1.836 4.112a14.91 14.91 0 0 1-16.668 8.455l-29.35-6.318a99.307 99.307 0 0 0-42.077 0l-29.349 6.318a14.907 14.907 0 0 1-16.669-8.455l-3.86-8.65a5.199 5.199 0 0 1-.002-4.29Zm2.286 81.577v-58.972a22.026 22.026 0 0 0 15.174 6.117 21.581 21.581 0 0 0 4.544-.484l29.35-6.317a92.371 92.371 0 0 1 39.13 0l29.35 6.317a21.918 21.918 0 0 0 19.712-5.64v58.979a48.18 48.18 0 0 1-18.645 38.223l-11.345 8.867V218a30.364 30.364 0 0 0-23.442-29.703 15.367 15.367 0 0 0 .204-2.385v-4.027a3.5 3.5 0 1 0-7 0v4.027a8.402 8.402 0 0 1-16.804 0v-4.027a3.5 3.5 0 1 0-7 0v4.027a15.367 15.367 0 0 0 .204 2.385A30.364 30.364 0 0 0 217.36 218v17.66l-11.347-8.87a48.177 48.177 0 0 1-18.643-38.22ZM287.64 218v23.131l-8.124 6.35a36.352 36.352 0 0 1-22.266 7.67h-2.5a36.353 36.353 0 0 1-22.265-7.668l-8.125-6.352V218a23.392 23.392 0 0 1 19.147-23.116 15.353 15.353 0 0 0 24.986 0A23.392 23.392 0 0 1 287.64 218Zm-92.122 60.685A23.352 23.352 0 0 0 208.7 257.57v-19.795L228.176 253a43.384 43.384 0 0 0 26.574 9.151h2.5a43.383 43.383 0 0 0 26.575-9.152l18.915-14.785V257.3a23.665 23.665 0 0 0 13.183 21.114l.976.478a94.93 94.93 0 0 1-121.8-.002ZM335.57 368.31H176.43v-80.3l11.816-5.773a101.977 101.977 0 0 0 135.504.004l11.82 5.779Zm31.26 2.607a33.4 33.4 0 0 0-12.95-2.607h-11.31v-82.22a1.504 1.504 0 0 1 2.26-1.295l21.245 12.361a1.524 1.524 0 0 1 .755 1.304Zm7 3.992v-68.193l38.53 18.828a56.84 56.84 0 0 1 9.148 5.616l-35.22 61.001c-.107.008-.215.023-.322.031a33.396 33.396 0 0 0-12.136-17.283ZM348 423.5a14 14 0 1 1 13.98-14.38l-7.32 12.68a13.85 13.85 0 0 1-6.66 1.7Zm23.002 70.662a21.667 21.667 0 0 1-37.528-21.667l36.127-62.572a21.523 21.523 0 0 1 13.156-10.096c.39-.104.782-.191 1.175-.274.019-.003.037-.001.056-.005.044-.008.083-.028.126-.038a21.667 21.667 0 0 1 23.015 32.08ZM444.06 460.4h-45.482l14.613-25.31a28.478 28.478 0 0 0 2.864-21.753 28.972 28.972 0 0 0-1.888-5.08l27.608-47.819a56.18 56.18 0 0 1 2.285 15.862Zm60.834-213.571-15.036 37.92a1.498 1.498 0 0 1-1.217.935l-8.444 1.012a8.543 8.543 0 0 0-6.349 4.19l-64.01 110.869a28.785 28.785 0 0 0-15.754-9.096l64.01-110.869a8.54 8.54 0 0 0 .453-7.594l-3.345-7.818a1.496 1.496 0 0 1 .203-1.52l25.32-31.982a1.51 1.51 0 0 1 1.927-.368l21.598 12.469a1.509 1.509 0 0 1 .644 1.852Zm-238.156-30.787a28.472 28.472 0 0 1-11.454 2.114 28.174 28.174 0 0 1-10.02-2.113 3.5 3.5 0 1 0-2.659 6.476 35.149 35.149 0 0 0 12.502 2.635q.454.011.905.012a35.096 35.096 0 0 0 13.382-2.647 3.5 3.5 0 1 0-2.656-6.477ZM166 388.5a21 21 0 1 0 21 21 21.024 21.024 0 0 0-21-21Zm0 35a14 14 0 1 1 14-14 14.016 14.016 0 0 1-14 14Zm114.174 17.408q-4.859-2.793-9.705-5.61l-4.848-2.806.687-1.619c2.404-5.653 4.89-11.499 7.152-17.339a7.42 7.42 0 0 0-.815-6.904 7.906 7.906 0 0 0-6.539-3.36c-.05 0-.102 0-.152.002a8.137 8.137 0 0 0-5.33 2.515q-9.534 9.072-19.107 18.102-5.626 5.319-11.247 10.64a7.885 7.885 0 0 0-2.528 6.581 7.776 7.776 0 0 0 3.815 5.815c4.079 2.463 8.273 4.854 12.33 7.168l2.497 1.426q-2.252 5.36-4.478 10.73l-.826 1.975c-.85 2.026-1.729 4.122-2.544 6.228a7.492 7.492 0 0 0 3.793 9.49 7.71 7.71 0 0 0 3.337.788 8.186 8.186 0 0 0 5.703-2.526l5.922-5.602q12.225-11.567 24.44-23.144a7.833 7.833 0 0 0 2.518-6.621 7.958 7.958 0 0 0-4.075-5.929Zm-3.26 7.472q-12.207 11.58-24.435 23.137l-5.921 5.603c-.764.722-.957.63-1.18.52a.521.521 0 0 1-.314-.662c.78-2.015 1.64-4.065 2.471-6.046l.835-1.995q2.715-6.532 5.456-13.054a3.966 3.966 0 0 0-1.79-5.194q-2.337-1.343-4.682-2.676c-4.019-2.293-8.175-4.663-12.18-7.081a.904.904 0 0 1-.472-.575.985.985 0 0 1 .382-.746q5.617-5.321 11.242-10.635 9.571-9.049 19.123-18.117a3.054 3.054 0 0 1 .778-.585.85.85 0 0 1 .66.334.387.387 0 0 1 .046.398c-2.22 5.733-4.684 11.526-7.066 17.128l-1.684 3.964a4.013 4.013 0 0 0 1.774 5.206q3.504 2.023 7.002 4.051 4.86 2.816 9.726 5.622a1.11 1.11 0 0 1 .613.688.966.966 0 0 1-.383.715Zm-41.86-397.038c3.284 1.982 6.657 3.906 9.919 5.766l1.492.852q-1.692 4.032-3.367 8.071l-.667 1.596c-.684 1.63-1.392 3.317-2.05 5.017a6.821 6.821 0 0 0 6.337 9.193 7.413 7.413 0 0 0 5.094-2.213l4.124-3.902q10.151-9.604 20.293-19.217a6.978 6.978 0 0 0 2.234-5.902 7.077 7.077 0 0 0-3.615-5.28q-3.958-2.276-7.906-4.57l-3.273-1.895.315-.742c1.936-4.552 3.938-9.259 5.762-13.966a6.651 6.651 0 0 0-.731-6.19 7.043 7.043 0 0 0-5.822-2.997c-.047 0-.096 0-.146.002a7.206 7.206 0 0 0-4.736 2.212q-7.625 7.254-15.282 14.477-4.565 4.317-9.128 8.636a7.02 7.02 0 0 0-2.242 5.862 6.934 6.934 0 0 0 3.395 5.19Zm3.662-5.971q4.558-4.318 9.121-8.63 7.529-7.116 15.041-14.248c-1.691 4.317-3.542 8.667-5.335 12.883l-1.355 3.19a3.887 3.887 0 0 0 1.716 5.045q2.766 1.597 5.529 3.2 3.96 2.294 7.925 4.58a.98.98 0 0 1 .056.034l-.002.002q-10.134 9.614-20.287 19.21l-3.875 3.665c.528-1.327 1.09-2.666 1.636-3.968l.676-1.615q2.182-5.251 4.385-10.492a3.885 3.885 0 0 0-1.729-5.039q-1.885-1.084-3.777-2.16c-3.211-1.832-6.532-3.725-9.728-5.654Zm-26.904 104.372a28.16 28.16 0 0 1 10.021-2.113 28.474 28.474 0 0 1 11.454 2.114 3.5 3.5 0 1 0 2.655-6.477 35.22 35.22 0 0 0-26.788 0 3.5 3.5 0 0 0 2.659 6.476Zm10.737 3.876a3.5 3.5 0 0 0-3.5 3.5v7.678a3.5 3.5 0 0 0 7 0v-7.678a3.5 3.5 0 0 0-3.5-3.5Zm65.032 0a3.5 3.5 0 0 0-3.5 3.5v7.678a3.5 3.5 0 1 0 7 0v-7.678a3.5 3.5 0 0 0-3.5-3.5Zm-10.737-3.876a28.166 28.166 0 0 1 10.021-2.113 28.478 28.478 0 0 1 11.454 2.114 3.5 3.5 0 0 0 2.656-6.477 35.22 35.22 0 0 0-26.789 0 3.5 3.5 0 1 0 2.658 6.476Z"></path></svg>