<svg xmlns="http://www.w3.org/2000/svg" enable-background="new 0 0 50 50" viewBox="0 0 50 50" id="labor"><path d="M49.0002,42.0083c0,1.18-0.96,2.13-2.13,2.13h-10.67c-1.6877,0-2.6914-1.8414-1.81-3.26l2.23-3.58h-4.69
		v5.78c0,1.17-0.95,2.13-2.13,2.13s-2.13-0.96-2.13-2.13v-7.91c0-1.18,0.95-2.14,2.13-2.14h5.56c-0.57-1.44-1.09-2.5501-1.53-3.39
		c-2.6615,2.2461-5.8742,3.1137-9.05,1.69h0.03c1.5086,0,3.1781-1.5944,1.48-4.02c2.0109,1.0259,3.7799,0.1066,5.4-1.5
		c-0.15-1,0.19-2.07,1-2.82c1.29-1.2,3.34-1.11,4.54,0.19c0.43,0.46,2.71,3.14,5.2,10.57c0.239,0.6851,0.2695,1.8652-0.15,2.54
		l-2.2401,3.59h6.83C48.0402,39.8783,49.0002,40.8283,49.0002,42.0083z"></path><circle cx="32.466" cy="16.942" r="3.733"></circle><path d="M19.8822 11.4562H3.1978V8.1977c.7516-.5375 2.4057-1.3486 4.074.3188.2169.2169.5684.2169.7853 0 .2169-.2169.2169-.5684 0-.7853-.8746-.8746-1.7847-1.241-2.6378-1.3057V4.7917H.9998c0 8.6473 0 .6681 0 16.6612H8.775c4.5306 0 8.2615-3.393 8.8092-7.7752h2.298c.6135 0 1.1107-.4973 1.1107-1.1107C20.993 11.9534 20.4957 11.4562 19.8822 11.4562zM14.0432 22.5636c-.4645 0-.8404.3763-.8404.8404v5.1646c0 1.6315-1.3271 2.959-2.9586 2.959-1.6315 0-2.9594-1.3274-2.9594-2.959v-2.2934c0-.4641-.3759-.8404-.8404-.8404h-3.764v-.7354H.9998v3.3616h1.6806v-.9455H5.604v1.453c0 2.5585 2.0813 4.6397 4.6402 4.6397 2.5581 0 4.6393-2.0812 4.6393-4.6397V23.404C14.8835 22.9399 14.5077 22.5636 14.0432 22.5636zM21.85 20.6337c-.7821-1.1071-2.3278-1.3729-3.4349-.5908-.0604.0427-.1107.0782-.1539.1238l1.7432 1.1221c.4141.2657.5244.8063.2688 1.2132-.2657.414-.8064.5244-1.2204.2586l-1.6461-1.07c-.0963.6111.0336 1.2435.4176 1.787.5222.7391 1.3841 1.0929 2.2292 1.0206l3.754 5.3136c.3927.5559 1.1616.6881 1.7174.2954.5559-.3927.6881-1.1616.2954-1.7174l-3.7537-5.3132C22.4177 22.3042 22.3724 21.3731 21.85 20.6337z"></path></svg>