<svg xmlns="http://www.w3.org/2000/svg" enable-background="new 0 0 50 50" viewBox="0 0 50 50" id="meter-reader"><path fill="#B9BFC1" d="M18,49l2.4-21.4c0.2-1.4,1.5-2.6,2.9-2.6h5.8c1.4,0,2.4,1.1,2.2,2.5L28.9,49h1.1l2.4-21.4
				c0.1-1-0.2-1.9-0.8-2.6C30.9,24.4,30,24,29.1,24h-5.8c-2,0-3.7,1.6-4,3.6L16.9,49H18z"></path><path fill="#E5E5E5" d="M22,49l-1.1-21.4c-0.1-1.4,1-2.6,2.4-2.6h5.8c1.4,0,2.6,1.1,2.7,2.6L32.9,49h1.1l-1.1-21.4
				c-0.1-2-1.8-3.6-3.8-3.6h-5.8c-2,0-3.5,1.6-3.4,3.6L20.9,49H22z"></path><polygon fill="#E5E5E5" points="34.3 38.3 20.9 38.3 20.9 37.2 34.2 37.2"></polygon><polygon fill="#E5E5E5" points="34.6 45.7 21.3 45.7 21.3 44.6 34.6 44.6"></polygon><path fill="#53B2E5" d="M32.8 42.7l.1 1.3c0 .4-.3.8-.7.8L31 44.8c-.4 0-.8-.3-.8-.7l-.1-1.3L32.8 42.7zM21.9 42.7l-.1 1.3c0 .4.3.8.7.8l1.2.1c.4 0 .8-.3.8-.7l.1-1.3L21.9 42.7z"></path><path fill="#E5E5E5" d="M27.8,1.6v14.7c0,0.4-0.3,0.7-0.7,0.7H16c-0.4,0-0.7-0.3-0.7-0.7V1.6C15.4,1.2,15.7,1,16,1h11.1
				C27.5,1,27.8,1.2,27.8,1.6z"></path><path fill="#3F535A" d="M26.9,1.7H16.3c-0.1,0-0.2,0.1-0.2,0.2v14.2c0,0.1,0.1,0.2,0.2,0.2h10.6c0.1,0,0.2-0.1,0.2-0.2V1.9
					C27,1.8,27,1.7,26.9,1.7z M26.7,15.9H16.4V2h10.3V15.9z"></path><rect width="1.8" height="1.8" x="17.1" y="2.5" fill="#3F535A"></rect><rect width="1.8" height="1.8" x="24.3" y="2.5" fill="#3F535A"></rect><rect width="1.5" height="1.5" x="17.9" y="7.1" fill="#3F535A"></rect><rect width="1.5" height="1.5" x="20.9" y="7.1" fill="#3F535A"></rect><rect width="1.5" height="1.5" x="23.7" y="7.1" fill="#3F535A"></rect><path fill="#EB6024" d="M20.6,3.4c0,0.2-0.1,0.3-0.3,0.3c-0.2,0-0.3-0.1-0.3-0.3c0-0.2,0.2-0.3,0.3-0.3
					C20.4,3.1,20.6,3.3,20.6,3.4z"></path><path fill="#F8DB54" d="M21.9,3.4c0,0.2-0.1,0.3-0.3,0.3c-0.2,0-0.3-0.1-0.3-0.3c0-0.2,0.2-0.3,0.3-0.3
					C21.7,3.1,21.9,3.3,21.9,3.4z"></path><path fill="#53B2E5" d="M23.2,3.4c0,0.2-0.1,0.3-0.3,0.3c-0.2,0-0.3-0.1-0.3-0.3c0-0.2,0.2-0.3,0.3-0.3
					C23.1,3.1,23.2,3.3,23.2,3.4z"></path><path fill="#EB6024" d="M18.5,12.1c0,0.2-0.1,0.3-0.3,0.3c-0.2,0-0.3-0.1-0.3-0.3c0-0.2,0.2-0.3,0.3-0.3
						C18.4,11.7,18.5,11.9,18.5,12.1z"></path><path fill="#F8DB54" d="M19.9,12.1c0,0.2-0.1,0.3-0.3,0.3c-0.2,0-0.3-0.1-0.3-0.3c0-0.2,0.2-0.3,0.3-0.3
						C19.7,11.7,19.9,11.9,19.9,12.1z"></path><path fill="#53B2E5" d="M21.2,12.1c0,0.2-0.1,0.3-0.3,0.3c-0.2,0-0.3-0.1-0.3-0.3c0-0.2,0.2-0.3,0.3-0.3
						C21,11.7,21.2,11.9,21.2,12.1z"></path><path fill="#475B64" d="M22.6,12.1c0,0.2-0.1,0.3-0.3,0.3c-0.2,0-0.3-0.1-0.3-0.3c0-0.2,0.2-0.3,0.3-0.3
						C22.5,11.7,22.6,11.9,22.6,12.1z"></path><path fill="#F8DB54" d="M23.9,12.1c0,0.2-0.1,0.3-0.3,0.3c-0.2,0-0.3-0.1-0.3-0.3c0-0.2,0.2-0.3,0.3-0.3
						C23.8,11.7,23.9,11.9,23.9,12.1z"></path><path fill="#53B2E5" d="M25.2,12.1c0,0.2-0.1,0.3-0.3,0.3c-0.2,0-0.3-0.1-0.3-0.3c0-0.2,0.2-0.3,0.3-0.3
						C25.1,11.7,25.2,11.9,25.2,12.1z"></path><g><path fill="#EB6024" d="M19.2,13.5c0,0.2-0.1,0.3-0.3,0.3c-0.2,0-0.3-0.1-0.3-0.3c0-0.2,0.2-0.3,0.3-0.3
						C19.1,13.2,19.2,13.4,19.2,13.5z"></path><path fill="#475B64" d="M20.5,13.5c0,0.2-0.1,0.3-0.3,0.3c-0.2,0-0.3-0.1-0.3-0.3c0-0.2,0.2-0.3,0.3-0.3
						C20.4,13.2,20.5,13.4,20.5,13.5z"></path><path fill="#53B2E5" d="M21.8,13.5c0,0.2-0.1,0.3-0.3,0.3c-0.2,0-0.3-0.1-0.3-0.3c0-0.2,0.2-0.3,0.3-0.3
						C21.7,13.2,21.8,13.4,21.8,13.5z"></path><path fill="#EB6024" d="M23.3,13.5c0,0.2-0.1,0.3-0.3,0.3c-0.2,0-0.3-0.1-0.3-0.3c0-0.2,0.2-0.3,0.3-0.3
						C23.1,13.2,23.3,13.4,23.3,13.5z"></path><path fill="#475B64" d="M24.6,13.5c0,0.2-0.1,0.3-0.3,0.3c-0.2,0-0.3-0.1-0.3-0.3c0-0.2,0.2-0.3,0.3-0.3
						C24.4,13.2,24.6,13.4,24.6,13.5z"></path></g><g><path fill="#53B2E5" d="M20.6,14.8c0,0.2-0.1,0.3-0.3,0.3c-0.2,0-0.3-0.1-0.3-0.3c0-0.2,0.2-0.3,0.3-0.3
						C20.4,14.5,20.6,14.6,20.6,14.8z"></path><path fill="#F8DB54" d="M21.9,14.8c0,0.2-0.1,0.3-0.3,0.3c-0.2,0-0.3-0.1-0.3-0.3c0-0.2,0.2-0.3,0.3-0.3
						C21.7,14.5,21.9,14.6,21.9,14.8z"></path><path fill="#53B2E5" d="M23.2,14.8c0,0.2-0.1,0.3-0.3,0.3c-0.2,0-0.3-0.1-0.3-0.3c0-0.2,0.2-0.3,0.3-0.3
						C23.1,14.5,23.2,14.6,23.2,14.8z"></path></g><g><path fill="#3F535A" d="M24.5,5.1h-4.2c-0.1,0-0.1,0-0.1,0.1v5.7h-1.4V6.5h-0.2v4.4c0,0.1,0,0.1,0.1,0.1h1.6c0,0,0.1,0,0.1-0.1
					V5.3h1.2v1.2h0.2V5.3h2.7v1.2h0.2L24.5,5.1C24.6,5.1,24.5,5.1,24.5,5.1z"></path></g><g><path fill="#F7CFB4" d="M25.7,11.1c-0.1,0.6-0.2,1.2-0.3,1.8c1,0.1,2.1,0.1,3.1,0c-0.2-0.6-0.3-1.2-0.3-1.8H25.7z"></path><path fill="#3F535A" d="M24.6,9.2c0.3,1.4,1.3,3.3,2.4,3.3c1.1,0,2.1-1.8,2.4-3.3H24.6z"></path><path fill="#F8DB54" d="M29.5,9.3c0-1.9-1.2-3.4-2.6-3.4c-1.4,0-2.6,1.5-2.6,3.4H29.5z"></path><path fill="#EEBA1D" d="M29.9,9.3c0,0.2-0.1,0.3-0.3,0.3h-5.4c-0.2,0-0.3-0.1-0.3-0.3C23.9,9.2,24,9,24.2,9h5.4
				C29.8,9,29.9,9.2,29.9,9.3z"></path><path fill="#F7CFB4" d="M19.6 18.3c-.1-.3 0-.7 0-1.1.1-1.2 0-2.4-.3-3.6 0-.2-.1-.7.1-.9.2-.2.4.1.6.4.2.2.3.7.4.9.1-.2-.1-1.1.3-.7.3.3.4 1.9.1 2.8-.1.4-.3.8-.1 1.2.1.3.5.5.7.7C22.7 19 20 20.3 19.6 18.3zM28 14c-.1-.3-.4-.6-.7-.8-.3-.2-.6-.3-1-.4-1.1-.3-2.3-.8-3.3-1.5-.2-.1-.7-.3-.9-.2-.2.1 0 .5.1.7.2.2.5.5.7.7-.2 0-1-.4-.8 0 .2.4 1.6 1 2.6 1.1.4 0 .8 0 1.1.3.3.2.3.6.4.9C26.8 16 28.2 14.9 28 14z"></path><path fill="#3F535A" d="M33,43c0,0.5-3,0.5-3,0l-0.5-3.2l-2.1-12.1l-2.1,12.1L24.7,43c0,0.6-3,0.6-3,0l1.5-18.8h8.2v0L33,43z"></path><path fill="#EB6024" d="M31.5,23.4c0,0.3,0,0.5,0,0.8h-8.3c0-0.3,0.1-0.5,0.1-0.8c0.3-2,0.3-4-0.1-6c-0.1,0.1-1.6,1.4-1.5,1.3
				c-0.3,0.2-1.5-1.4-1.2-1.6l1.3-1.8c0.7-1,1.7-1.7,2.9-2.1l0.1,0l0.7-0.7c0.9,0.3,1.9,0.3,2.9,0l0.3,0.5l0,0l2,1
				c0.5,0.3,0.9,0.8,1,1.4C31.7,16.7,31.1,16.5,31.5,23.4z"></path><path fill="#010101" d="M28.7,12.9c0,0-0.1,0-0.1,0c-0.2,0.1-0.5,0.1-0.7,0.1c-0.5,0.1-1,0.1-1.5,0.1
				c-0.3,0-0.6,0-0.9,0c-0.2,0-0.4,0-0.6,0c0,0,0,0-0.1,0l0.7-0.6c0.9,0.3,1.9,0.3,2.9,0L28.7,12.9z" opacity=".1"></path><path fill="#E5E5E5" d="M31.5,24.2L31.5,24.2l-8.3,0v0c0-0.3,0.1-0.6,0.1-0.8h8.1C31.5,23.6,31.5,23.9,31.5,24.2z"></path></g><path fill="#010101" d="M29.6 39.4c0 .1-.1.3-.2.4l-2.1-12.1-2.1 12.1c-.1-.2-.1-.3-.2-.5-.3-1.3.2-2.9.3-4.2 1.1-7.9 2.2-9.1 2-9.5.7 1.2.6 1.6 2.2 12.6C29.7 38.6 29.7 39 29.6 39.4zM24.2 16.8c.1 0 .2 0 .2 0-.9 1.7-.5 4.1-.8 4.4 0-1.3-.1-2.6-.3-3.9l0 0c.1-.5.7-1 1.2-1.3C24.3 16.4 24.2 16.6 24.2 16.8z" opacity=".1"></path></svg>