<svg xmlns="http://www.w3.org/2000/svg" viewBox="0 0 512 512" id="plumbing"><defs><clipPath id="a"><path fill="none" d="M359.59,482a114.11,114.11,0,0,1-114-114V312.75a25.49,25.49,0,0,0-25.46-25.45H91.34V198.76H220.15a114.12,114.12,0,0,1,114,114V368a25.45,25.45,0,0,0,50.9,0V94.77h88.54V368A114.11,114.11,0,0,1,359.59,482Z"></path></clipPath></defs><path fill="#287eef" d="M359.59,482a114.11,114.11,0,0,1-114-114V312.75a25.49,25.49,0,0,0-25.46-25.45H91.34V198.76H220.15a114.12,114.12,0,0,1,114,114V368a25.45,25.45,0,0,0,50.9,0V94.77h88.54V368A114.11,114.11,0,0,1,359.59,482Z"></path><g clip-path="url(#a)"><path fill="#1573d8" d="M245.61,345.5l58,13.23s10.23,43.29,38.06,51.12S379,384.51,379,384.51l-21.63-48.28-30.08-2.76H267.07Z"></path><path fill="#1573d8" d="M385,277.38l59.76,9.92S467.52,506.21,324.47,482l21.31,26.13,134-38.68,12.89-181.07-19.11-34.32H400.2Z"></path><polygon fill="#1573d8" points="385.04 112.11 442.35 126.88 445.42 255.86 492.69 251.92 488.39 90.59 429.27 85.75 385.04 112.11"></polygon></g><rect width="43.04" height="112.15" x="83" y="186.01" fill="#efbd42" rx="6.75"></rect><rect width="43.04" height="112.15" x="268.19" y="267.91" fill="#efbd42" rx="6.75" transform="rotate(90 289.705 323.985)"></rect><rect width="43.04" height="112.15" x="407.76" y="199.79" fill="#efbd42" rx="6.75" transform="rotate(90 429.275 255.865)"></rect><rect width="43.04" height="112.15" x="407.76" y="34.52" fill="#efbd42" rx="6.75" transform="rotate(90 429.275 90.595)"></rect><path fill="#2d1929" d="M217.28,287.3l-13.41-31.44,8.49-35.05-31.73,21.28,1.48,33L155.92,287.3Z"></path><path fill="#86ebf9" d="M189.73,304.06c-9.12,7.6-38.91,34.29-38.85,71.82,0,9.08,0,26.69,12.78,35.9s33.38,6.57,44.27-4.91c14-14.72,6.92-38.71,1-49.68-4.41-8.15-8-8.77-12.79-17.71C189.17,326.47,188.92,313.11,189.73,304.06Z"></path><path fill="#e73f46" d="M34.28,81.06l25.16,9.25A17.27,17.27,0,1,0,71.36,57.9L46.08,48.6A4.12,4.12,0,0,1,45,41.47,44.71,44.71,0,1,1,28.74,85.84,4.18,4.18,0,0,1,34.28,81.06Z"></path><rect width="41.55" height="227.35" x="181.46" y="10.76" fill="#e73f46" transform="rotate(110.2 202.233 124.43)"></rect><path fill="#e73f46" d="M363.53,165.37l-25.16-9.25a17.27,17.27,0,1,0-11.92,32.41l25.28,9.3A4.11,4.11,0,0,1,352.8,205a44.71,44.71,0,1,1,16.26-44.37A4.18,4.18,0,0,1,363.53,165.37Z"></path><rect width="16.7" height="180.24" x="190.4" y="33.03" fill="#cc3745" rx="6.8" transform="rotate(110.2 198.751 123.145)"></rect><path fill="#e8e8e8" d="M53.19 39.38c3.72.16 25.3 1.43 38.07 18.63a43.21 43.21 0 017.29 15.77C101 47.91 77.63 33.29 53.19 39.38zM201.67 117.64c105.24 38.71 108.24 35.19 1.5-4.07C97.93 74.86 94.94 78.38 201.67 117.64zM225.84 205.67s45 7 66.3 31.92 27 60.57 27 60.57S294.19 222 225.84 205.67zM454.63 358.73S437.48 470.07 345.78 457C345.78 457 447.26 491.32 454.63 358.73z"></path><ellipse cx="457.9" cy="171.9" fill="#e8e8e8" rx="3.27" ry="48.91"></ellipse></svg>